<svg width="89" height="94" viewBox="0 0 89 94" fill="none" xmlns="http://www.w3.org/2000/svg">
<path d="M20.2014 40V44C20.2014 46.7614 22.4399 49 25.2014 49H37.2014" stroke="white" stroke-width="4"/>
<path fill-rule="evenodd" clip-rule="evenodd" d="M53.4137 54.6686L55.2671 52.5909L56.6443 55.0107L60.9395 62.5576L57.4632 64.5361L54.5451 59.4091L46.9205 67.9563L46.9443 67.9813L46.8872 68.0431L53.5242 75.6889L50.5035 78.3111L44.1533 70.9956L37.3355 78.3588L34.4005 75.6412L41.4584 68.0187L33.136 59.2724L29.911 64.5848L26.4917 62.509L31.0733 54.9621L32.4298 52.7276L34.2318 54.6213L44.1539 65.0488L53.4137 54.6686Z" fill="white" fill-opacity="0.5"/>
<path d="M10.8578 72.7907C5.2151 78 2.62884 87.5504 2.20135 92H44.2014L28.812 64C25.0716 64.5426 16.5006 67.5814 10.8578 72.7907Z" stroke="white" stroke-width="4"/>
<path d="M77.5449 72.7907C83.1876 78 85.7739 87.5504 86.2014 92H44.2014L59.5907 64C63.3311 64.5426 71.9021 67.5814 77.5449 72.7907Z" stroke="white" stroke-width="4"/>
<path d="M44.2014 8C53.9597 8 61.7451 16.142 61.3088 25.8906L60.5256 43.3896C60.1348 52.1217 52.9421 59 44.2014 59C35.4606 59 28.2679 52.1217 27.8771 43.3896L27.0939 25.8906C26.6576 16.142 34.443 8 44.2014 8Z" stroke="white" stroke-width="4"/>
<path d="M26.7014 25C26.7014 25 30.9898 19.5199 36.0462 18.3243C43.6725 16.5209 43.3824 22.6617 54.5462 26.3317C57.2793 27.2302 61.2014 27 61.2014 27" stroke="white" stroke-opacity="0.5" stroke-width="4"/>
<path fill-rule="evenodd" clip-rule="evenodd" d="M72.122 34.1516C72.2196 31.7329 71.4959 29.4714 70.1992 27.6363C70.0189 12.4893 58.5934 0 44.2014 0C30.1122 0 18.8661 11.9691 18.2298 26.6835C16.4631 28.658 15.4329 31.2952 15.5481 34.1516L15.5698 34.688C15.805 40.5167 20.7207 45.0512 26.5494 44.816L26.3882 40.8193C22.7668 40.9654 19.7126 38.1481 19.5665 34.5268L19.5449 33.9903C19.3988 30.369 22.216 27.3148 25.8374 27.1687L25.6762 23.1719C24.5764 23.2163 23.5228 23.4273 22.5386 23.7796C24.3758 12.4349 33.4902 4 44.2014 4C55.0117 4 64.1955 12.5918 65.9133 24.0954C64.713 23.5534 63.3907 23.2283 61.994 23.1719L61.8327 27.1687C65.4541 27.3148 68.2714 30.369 68.1253 33.9903L68.1036 34.5268C67.9575 38.1481 64.9034 40.9654 61.282 40.8193L61.1207 44.816C66.9494 45.0512 71.8652 40.5167 72.1004 34.688L72.122 34.1516Z" fill="white"/>
<rect x="37.2039" y="45.8917" width="10.6774" height="6.24404" rx="3.12202" transform="rotate(0.400125 37.2039 45.8917)" stroke="white" stroke-width="4"/>
<path d="M66.2014 75C68.2526 75.6875 73.1244 78.85 76.2014 86" stroke="white" stroke-opacity="0.5" stroke-width="4"/>
</svg>
