<svg width="132" height="81" viewBox="0 0 132 81" fill="none" xmlns="http://www.w3.org/2000/svg">
<rect x="2" y="32.7273" width="85.6552" height="46.2727" stroke="white" stroke-width="4"/>
<path d="M93.2414 59.4545H120C125.523 59.4545 130 54.9774 130 49.4546V12C130 6.47715 125.523 2 120 2H50.3448C44.822 2 40.3448 6.47716 40.3448 12V27.1364" stroke="white" stroke-width="4"/>
<path d="M44.8273 40.8068C53.1281 40.8068 59.8624 47.5454 59.8625 55.8635C59.8625 64.1816 53.1281 70.9201 44.8273 70.9201C36.5266 70.9199 29.7931 64.1815 29.7931 55.8635C29.7932 47.5455 36.5266 40.807 44.8273 40.8068Z" stroke="white" stroke-opacity="0.5" stroke-width="4"/>
<path d="M46.6134 48.8864C48.4836 48.8864 50.0001 50.4028 50.0001 52.2731C49.9999 54.1431 48.4835 55.6588 46.6134 55.6588H42.3448V48.8864H46.6134Z" stroke="white" stroke-width="4"/>
<rect x="36.7586" y="54.0682" width="7.17241" height="3.59091" fill="white"/>
<rect x="36.7586" y="59.4545" width="15.2414" height="3.59091" fill="white"/>
<rect x="40.3448" y="46.8864" width="3.58621" height="18.8523" fill="white"/>
<path d="M69.0345 39.7045H80.6897V54.0682" stroke="white" stroke-opacity="0.5" stroke-width="4"/>
<path d="M20.6207 72.0227H8.96552V57.6591" stroke="white" stroke-opacity="0.5" stroke-width="4"/>
<path d="M8.96551 54.0682V46.8864" stroke="white" stroke-opacity="0.5" stroke-width="4"/>
<path fill-rule="evenodd" clip-rule="evenodd" d="M110.276 50.441C108.946 51.583 107.219 52.2727 105.331 52.2727C101.13 52.2727 97.7241 48.8563 97.7241 44.642C97.7241 40.4277 101.13 37.0114 105.331 37.0114C107.219 37.0114 108.946 37.7011 110.276 38.843C111.606 37.7011 113.333 37.0114 115.22 37.0114C119.422 37.0114 122.828 40.4277 122.828 44.642C122.828 48.8563 119.422 52.2727 115.22 52.2727C113.333 52.2727 111.606 51.583 110.276 50.441Z" fill="white"/>
<rect x="42.1379" y="11.875" width="86.069" height="4.48864" fill="white" fill-opacity="0.5"/>
<rect x="42.1379" y="19.9546" width="86.069" height="4.48864" fill="white" fill-opacity="0.5"/>
</svg>
