<svg width="79" height="96" viewBox="0 0 79 96" fill="none" xmlns="http://www.w3.org/2000/svg">
<circle cx="38.6761" cy="37.5" r="16.5" stroke="white" stroke-opacity="0.5" stroke-width="4"/>
<path d="M45.8411 9.33008L46.6468 10.1191L47.7386 9.83887L56.7757 7.51562L59.2835 16.5039L59.5862 17.5898L60.6722 17.8926L69.6595 20.3994L67.3372 29.4375L67.0569 30.5293L67.846 31.335L74.3753 38L67.846 44.665L67.0569 45.4707L67.3372 46.5625L69.6595 55.5996L60.6722 58.1074L59.5862 58.4102L59.2835 59.4961L56.7757 68.4834L47.7386 66.1611L46.6468 65.8809L45.8411 66.6699L39.1761 73.1992L32.511 66.6699L31.7054 65.8809L30.6136 66.1611L21.5755 68.4834L19.0687 59.4961L18.7659 58.4102L17.68 58.1074L8.69171 55.5996L11.015 46.5625L11.2952 45.4707L10.5062 44.665L3.97589 38L10.5062 31.335L11.2952 30.5293L11.015 29.4375L8.69171 20.3994L17.68 17.8926L18.7659 17.5898L19.0687 16.5039L21.5755 7.51562L30.6136 9.83887L31.7054 10.1191L32.511 9.33008L39.1761 2.7998L45.8411 9.33008Z" stroke="white" stroke-width="4"/>
<path d="M14.1802 58L3.18227 82.1799L16.2969 81.5075L24.4034 91.8386L29.6269 80.3303" stroke="white" stroke-width="4"/>
<path d="M43.7332 68.8221L54.1802 91.8386L62.2866 81.5075L75.4013 82.1799L69.9023 70.0899" stroke="white" stroke-width="4"/>
</svg>
